<svg xmlns="http://www.w3.org/2000/svg" width="510.1" height="369" viewBox="0 0 510.1 369">
  <g id="katman_2" data-name="katman 2">
    <g id="katman_1-2" data-name="katman 1">
      <path d="M299,135.6c-7.1,9.3-21.5,11.5-31.1,4.8-7.2-5.2-11.1-5.1-18.1.4-5.3,4.3-11.3,6.2-18.1,4.9a24.8,24.8,0,0,1-15.9-9.6c-.8-.9-2.5-1.2-3.8-1.8-.3,1.5-1.3,3.2-.9,4.3a15.1,15.1,0,0,0,4,5.9c8.5,7.3,29.7,10.1,39.7-2,2.9-3.4,4.9-3.2,8.6-.7a46,46,0,0,0,8.7,5.3c11.4,5.1,23.4.9,29.4-10a31.8,31.8,0,0,0,1-3.3l-1-.6C300.8,134,299.8,134.7,299,135.6Zm-45.1,15.9c-3.2-.8-4.7.2-6.3,3.1,5.9,2.7,11.7,2.4,17.5,1.1,1.2-.3,1.9-2,2.8-3a22.5,22.5,0,0,0-3.6-.6C260.8,151.9,257.1,152.3,253.9,151.5Zm62.9-66.9c-19.5-5.8-35.8,9.5-39.2,27.4-.4,2.2.6,3.3,2.6,3.8,5.6,1.3,9.1-1.1,10.6-6.6s2.7-11,5.5-15.6c5.6-9.4,16.7-9,22.1.5,2.1,3.8,3.2,8.2,4.1,12.5s2,6,7.1,6.4c2.4-.7,5-1.1,7.1-2.2s2.1-2.9,1.8-3.9C334.6,96.4,328,88.1,316.8,84.6ZM501.1,35.1q-28.2,2.3-56.2,4.9c-22.5,2.1-45.1,4.3-67.8,3.3a37.7,37.7,0,0,1-8.1-1.7c-7.6-2.3-14.3-1.6-20.1,4.3a16.7,16.7,0,0,1-1.6,1.2c-17.7-22.2-42.9-29.2-69.4-34.9a56,56,0,0,0,4.3-5.4c.6-1.1.5-2.6.8-3.8-1.6.2-3.6,0-4.7.8s-2.4,3.3-3.6,4.9S268,11.8,266,9.9s-.1-4.1.8-6c.1-.2.4-.4.4-.7V0c-1.3.2-3.1,0-3.7.7s-1.5,3.2-1.9,4.9c-1.1,4-2.5,4.8-7.4,4.1s-1.8-3.1-2.1-5a5.1,5.1,0,0,0-1.2-2.8c-.6-.5-2.4-.5-2.7-.1a4.6,4.6,0,0,0-1.1,3.3c.6,3.6-1,4.3-4.2,5-11.9,2.4-23.9,4.7-35.6,8.1s-24.4,9.4-34,18.9c-5.1,5-8.2,11.1-9.8,18.8-.7-1.4-1.1-2-1.5-2.7-3.8-8.2-9.1-11.1-18-9.4-2.6.5-5.2,1.6-7.8,1.8-13.6.3-27.3,1.3-40.8.3-27.8-2-55.6-5.2-83.4-7.7-3.9-.4-7.9.2-11.8.4A5.9,5.9,0,0,1,0,39.9c.8,1,1.5,2,2.3,2.9C7,48.5,11.8,54,16.4,59.8c13.4,17.5,26.5,35.2,40,52.3C67,125.4,79.9,136,95.6,143c17.8,8,36.5,9,55.6,7.3l10.3-1-1.6,2.3c-6.8,7.4-12.1,15.4-10.5,26.2.2,1-.7,2.4-1.6,3.2-13.6,14.5-18.3,31.8-16.2,51.3.7,6.9,4.5,13,1.2,20.7-2.2,5.1-.4,12-.6,18,0,2.9.4,6.4-1.1,8.3A65.2,65.2,0,0,0,118.7,314c-1.5,23.2,7.6,45.5,37.5,51.8,20.1,4.3,40.2,3.9,60.3,1.2,18.1-2.4,36.2-5.4,54.3-8,1.3-.2,3-.3,4,.3,8.4,4.8,17.6,6.1,26.9,5.7,21.3-.9,42.6-2.6,63.9-4,13.3-.8,26.6-2.7,39.9.3a3.8,3.8,0,0,0,3.1-1.6c4.3-10.4,6-21.2,4.2-32.4-2.5-15.2-9.8-28.2-19.3-39.8-8.4-10.1-10.6-21.9-12.2-34.1a7.4,7.4,0,0,1,1.3-4.9c5.6-6.2,7.2-13.5,6.3-21.3-2.2-19.3-12.2-34.7-25.9-47.9-2.4-2.2-4.2-4-3.4-7.6a14.4,14.4,0,0,0-.4-6.5c-1.1-4.7-2.6-9.4-4-14.4a55.9,55.9,0,0,1,5.9,1.1c22.1,5.3,43.2,2.8,63.2-7.9a125.8,125.8,0,0,0,29.5-22.1c19.5-19.3,34-42,46.7-66.1,3.3-6.1,6.2-12.4,9.6-19.4C506.4,35.8,503.7,35,501.1,35.1ZM143.3,141.4c-46-10.8-82.8-35.8-111.6-72.8-2.9-3.6-5.3-7.5-7.9-11.2a34.4,34.4,0,0,1-1.7-3A45,45,0,0,1,27,55.7c20.5,7.8,42.1,11.4,63.6,15,9.9,1.6,19.9,2.9,29.6,5.3s16,7.9,19.8,17.7c5.9,15.1,13.1,29.7,19.7,44.5a26,26,0,0,0,2.1,4C155.2,143.6,149.1,142.7,143.3,141.4Zm7.3,51.4a7.2,7.2,0,0,1,1.1-1.9c2.7-4.1,3.3-4,6.5-.3s7.7,7.9,11.7,12.1c-9.6,1.8-14.6,8.7-17.3,17.5s-.2,17.1,2.7,25.7c-5.9-.1-10.2-4.2-11.1-10.3A76.6,76.6,0,0,1,150.6,192.8Zm27.8,56.9c.1,4.1-1.2,5.2-5.3,4.5a13,13,0,0,1-10.3-9.7c-1.9-7.9-2.2-16,.1-23.7,3.4-11.4,7.9-12.4,17.7-13.4,1-.1,1.9.3,3.9.6-5.2,7.9-6.7,16.1-6.7,24.6C177.8,238.3,178.3,244,178.4,249.7Zm208.2,41.7c4.6,3,7.3,7.4,9.6,12.1,5.6,11.6,8.8,23.8,8.6,36.8a17.7,17.7,0,0,1-.1,2.3c-.6,7.5-2.2,8.7-9.5,7.8-12.2-1.4-24.1-.2-36,2.2-18.2,3.8-36.5,7-55.3,5.7a170.4,170.4,0,0,1-21.5-2.4c-10.6-2.2-20.9-1-31.4.4-25.2,3.6-50.5,6-76,2.7-9.4-1.2-18.7-3.2-27.4-7.7a23.1,23.1,0,0,1-11.8-12.8c-5.8-14.6-5.6-29.3-.5-43.9,1.6-4.6,3.3-4.9,6.8-1.4s5.7,6.2,8.8,9c5.1,4.7,10.7,6.9,16.7,6.8-5.5-5.5-10.7-10.3-15.4-15.6s-10.2-12.9-10.4-21.2c-.1-6.7,1.5-13.5,2.6-20.2.3-2.1,2-1.9,3.5-1s5,3.1,7.6,4.4c7,3.5,14.2,6.9,22.2,4,3.9-1.4,7.7-3.2,10.3-7.2,1-1.6,4.9-1.6,7.5-1.7.9-.1,2.2,1.5,2.6,2.6,5,11.5,12.3,21,23,27.8,14.2,8.9,28.5,17.8,42.5,27.2,6,4,11.5,8.8,17,13.4,2.5,2.1,3.6,1.9,5.2-.8,5.9-9.7,11.5-19.5,17.8-28.8,8.4-12.1,17.4-23.7,25.8-35.8a10.6,10.6,0,0,1,10-4.8,4,4,0,0,1,2.6,2.6c1.1,5.9,2.2,7.4,8,6.4s12.2-3.2,18.4-4.8c1.8-.5,3.5-1.3,5.9-2.1a14.7,14.7,0,0,1,.2,3.5c-1.1,7.6.5,14.9,2,22.3a15.1,15.1,0,0,1-.6,7.6c-3.5,9.1-10.6,15.5-17,22.4a10.8,10.8,0,0,0-2.1,3c6.3-1.2,11.4-4.7,15.8-9a57.4,57.4,0,0,0,8.4-10.7C382.9,289.6,384.3,289.8,386.6,291.4ZM211,222.6l-2-9.5s11-8.7,21.7-9,16.1,2.3,21.9,7.3a47.4,47.4,0,0,0,11.1,7.4s10.4-19.3,19.6-22.1,23.4-4.6,30.8,0,12.7,7.7,13.9,11.4-9.1,8.3-9.6,10.7-2.8,8.1.2,12.2,6.9,3.6,6.9,3.6-3.8,5.6-2.8,9.4,5.1,5.5,4.3,6.4-24.9,33.3-31,43.5-11.9,21.9-13.7,21.6S261,299,252.6,293.9s-33.1-18.6-39.5-27.2-10.8-16.3-10.8-16.3,5.7-6.5,4.4-10.9-2.3-8.5-2.3-8.5S212,227.5,211,222.6ZM328.3,231c-4-.2-6.8-3-6.7-6.8s3.7-7,8.7-6.9,7.6,2.5,7.5,6.3S333.3,231.1,328.3,231Zm13.1,11.1c.2,3.2-3.8,6.4-8.1,6.5s-6.1-2.2-6.3-5.7,2.8-6.4,6.9-6.5S341.3,239.1,341.4,242.1ZM197.6,228.8c-5.3,0-9.6-3.3-9.6-7.3s4.2-7.5,9.1-7.5,8.6,3.2,8.6,7.7S202.5,228.8,197.6,228.8Zm-2.8,3.8a7.4,7.4,0,0,1,7.5,7.4c0,3.7-2.8,6.3-6.7,6.3s-8.1-3.1-8.2-6.7S190.5,232.6,194.8,232.6Zm153.6,2.1a160.6,160.6,0,0,0-2.8-19.5c-.5-2.7.2-4.3,2.5-5.1a37.9,37.9,0,0,1,8.1-1.8,4.5,4.5,0,0,1,3.6,2c1.1,2.7,2.3,5.6,2.3,8.4-.2,9.1-.6,18.3-1.5,27.3-.5,5.5-6.4,8.7-12,7.8C348.5,247.1,348.9,240.9,348.4,234.7Zm14.4-45.3c9,5.1,13.9,13.6,16.9,23.1s3.1,19.5.9,29.4c-1,4.4-8.8,8.3-12.8,6-.8-.5-1.1-2.6-1-3.9,1.3-9.3,2-18.6.3-28-2.4-12.8-11.2-17.2-22.7-11.2-2.3,1.2-4.3,2.6-6.5,3.9-2.5-4.6-1.8-6.3,2.3-8.6,6.1-3.4,11.9-7.3,18-10.7A6.1,6.1,0,0,1,362.8,189.4Zm-7-9.6c-1.5,6.1-6.6,10-11.8,12.9a86.1,86.1,0,0,1-13.7,5.7,5.1,5.1,0,0,1-4.3-1c-16.7-16.8-48.5-13.4-60.6,11.9a41.9,41.9,0,0,1-2.1,3.8l-3.9-3.5c-13.2-12.2-31.9-14-47.1-4.1-2.2,1.4-4,2.1-6.7,1.3-4.9-1.4-9.9-2.4-14.8-3.7a35.6,35.6,0,0,1-15.5-7.8c-3.2-2.9-6.6-5.6-9.9-8.4-8.1-6.9-9.4-17.5-3.3-26.4,3.7-5.2,6.8-5.5,11.1-1,1,1,2.1,1.9,3,3,8.5,10,19.2,15.3,32.3,17.4,30.7,4.9,61.4,6.7,92.3,3.7a47.2,47.2,0,0,0,28.6-13.1c5.9-5.4,11.2-11.6,17.5-18.3,1.8,1.8,4.4,3.5,6,6.1C357.1,165,357.4,172.5,355.8,179.8Zm141.1-127c-21.7,29.9-47.4,55.4-79.5,73.9-20.1,11.6-41.4,18.8-64.8,18.8l-5-.2c9-16.3,11.5-33.9,16.8-50.5l2.1-6.5c2.8-8.7,8.8-13.9,17.4-16.7,14.2-4.8,28.9-6.7,43.7-8.5,20-2.5,40.3-3.3,59.8-8.9l10.3-3.4A11.4,11.4,0,0,1,496.9,52.8Zm-2.4-6.9c-8.3,2.4-16.5,5.6-25,6.3-23.3,2.2-46.6,3.3-69.9,4.9-13.1.8-26.1,1.8-39.4,3.7l5.5,4.3c3.9,3.4,4.4,7.5.5,10.7-5.9,4.9-8.2,11.6-10.1,18.4-3.8,13.9-6.8,27.9-10.7,41.7-2.9,10.6-7.2,21-15.8,28.3-11,9.3-23.5,14.9-38.4,15.7a352.8,352.8,0,0,1-82.1-4.8c-18-3.3-30.4-14-39-29.5-6.8-12.4-10.8-26-14.1-39.8-.8-3.6-1.9-7.1-2.6-10.7A18.7,18.7,0,0,0,147,84.6c-6.2-5.4-6.1-7.7,0-13.1l3.9-3.4c-3.4-.7-5.9-1.5-8.6-1.8-12.7-1.1-25.3-2.3-38-2.9C82.8,62.2,61.1,61.6,40,56.3c-9.2-2.4-18.1-5.7-26-11.1a3.4,3.4,0,0,0,.1-1c5.1.3,10.2.4,15.3,1,26.4,2.7,52.8,5.7,79.2,8.3,10.1,1,20.3.6,30.2-2.3a23.1,23.1,0,0,1,9.8-.2c7.6,1.1,10.8,5.6,10.4,13.3a85.1,85.1,0,0,0,3.9,30.5,4.2,4.2,0,0,0,1.8,2.4c.1-1.2.2-2.5.4-3.6,1.1-10.1,1.2-20.4,3.5-30.2,4-17,16.4-27.7,30.8-36s27-11.1,41.9-11.7c5.8-.2,5.8-.2,5.3,5.5-.1.6-.4,1.1-.1,1.5s1.3,2.3,1.8,2.2a4.1,4.1,0,0,0,2.6-2c.6-1,.2-2.4.4-3.7.9-4.6,1.8-5.2,7.4-4.5a34.3,34.3,0,0,0-1.5,5.4,10,10,0,0,0,.8,3.3,17.7,17.7,0,0,0,3.3-1.9c.6-.6.7-1.9,1-2.8,1.4-4.8,2.1-5.2,7.7-3.7-1,2.7-1.9,5.3-2.8,7.9l1.2.9a30,30,0,0,0,3.6-3.5c2-2.9,4.3-4,7.8-3.4,18.3,3.2,35,10.2,49.3,21.9,12.3,10.1,18.9,23.4,19.4,39.5.1,3,.5,6.2.8,9.2l1,.2a51.1,51.1,0,0,0,1.8-6.4,59.3,59.3,0,0,0-1.9-27.1c-1.2-3.7,1.5-5.7,3.9-6.9s6.2-2.1,8.7-1.3c17.7,6,35.3,2,52.9.7s35.8-4.4,53.8-6c10.2-.9,20.4-.1,30.7-.1l.6,1C498.8,43,496.8,45.2,494.5,45.9ZM219.6,100.4c1.9,3.9,3.4,7.9,5.1,11.9s4.1,5,7.8,4.4,4.8-2.2,3.2-5.5a78.3,78.3,0,0,0-6.4-11.3c-6.1-8.2-14.1-13.4-24.8-13.8l-4.1.4c-13.1,2.3-21.4,14-24.6,24.1-.3,1,.9,3.3,2,3.7a16.5,16.5,0,0,0,6.6,1.2c5-.2,5.8-1.3,7.2-6.2s2.6-8.6,4.8-12.3c4.8-8.3,12.4-9,19.2-2.1A20.9,20.9,0,0,1,219.6,100.4Zm68.7-47.6c-2.7,2.4-4.5,5.8-6.6,8.7l1.1.9,2.3-2.7c9-10.2,19.1-13,29.9-7.4,3.9,2.1,7,5.6,10.3,8.8,1.3,1.3,2.1,3.2,3.4,4.5a10.7,10.7,0,0,0,3.2,1.6c.4-1.1,1.4-2.5,1-3.4-1.3-3.1-2.6-6.7-4.9-9.2C318.8,44.6,298.5,43.6,288.3,52.8Zm-45.6,4.6c.4-.1.6-.8,1-1.2,7.5-9.2,19.2-10.2,27.9-2.3a14.9,14.9,0,0,0,2,1.5l.9-.8c-1.3-1.7-2.3-3.6-3.9-4.9-8.6-7.3-23-4.6-31,4.8-.5.5-.3,2.3.3,2.9S241.7,57.5,242.7,57.4Zm70-21.3.6-.7c-.9-.7-1.7-1.8-2.7-2.2-5.4-1.7-10.7-3.9-16.2-4.8a23.8,23.8,0,0,0-16.3,2.4c-2,1.2-4.1,2.4-3.5,6.2C287.3,28.1,299.9,27.2,312.7,36.1ZM186,69.6c2.3-2.9,4.2-6.1,6.5-8.9,4.1-5.1,9.3-8.6,15.8-7.2,4.6,1,8.8,3.7,12.9,6,2.4,1.3,4.3,3.4,6.3,5.1a22.2,22.2,0,0,0-9.5-11c-11.2-6.7-29.1-1.8-35.6,9.9a7.9,7.9,0,0,0-1.1,3.9c0,1.3.8,2.5,1.2,3.8C183.7,70.7,185.3,70.4,186,69.6Zm62.7,58.5c4.6,4.5,15.7,4,19.8-.9s2.4-7-1.4-9-5.9-2-9.3-3.1c-2.9,1.2-6.1,2-8.6,3.7S246,125.4,248.7,128.1Zm10.2-9.9h.4c4.8-.7,9.1,1.5,9.4,4.9a4.6,4.6,0,0,1-.5,2.3c-1.3,2-4.4,3.4-8.1,3.4h-.7c-3.1-.6-6.6-1.3-6.8-5S256,119.1,258.9,118.2Zm9.3-8c-4.8-3.7-10.2-4-15.7-2.8-1.7.4-3.1,2.2-4.6,3.3l.9,1.5C254.9,107.2,261.5,108.3,268.2,110.2ZM201,40.6a48.1,48.1,0,0,1,5.1-2.5c10.7-3.9,21.3-6.9,30.9,2.6h.7c-3.8-7.1-15.9-10.6-27.6-8.2-5.7,1.1-11.1,2.7-13.5,8.9A9.1,9.1,0,0,0,201,40.6Z"/>
    </g>
  </g>
</svg>
